<mxfile host="Electron" modified="2023-09-12T21:22:05.641Z" agent="Mozilla/5.0 (Windows NT 10.0; Win64; x64) AppleWebKit/537.36 (KHTML, like Gecko) draw.io/21.6.8 Chrome/114.0.5735.289 Electron/25.5.0 Safari/537.36" etag="UApGPmH7wx-oTQaZStMt" version="21.6.8" type="device">
  <diagram name="Page-1" id="glCw3KiS0-17hAmbRxZg">
    <mxGraphModel dx="1378" dy="999" grid="0" gridSize="10" guides="1" tooltips="1" connect="1" arrows="1" fold="1" page="0" pageScale="1" pageWidth="850" pageHeight="1100" math="0" shadow="0">
      <root>
        <mxCell id="0" />
        <mxCell id="1" parent="0" />
        <mxCell id="l_SEVt5sIYUPbIbYuYTj-5" style="edgeStyle=orthogonalEdgeStyle;rounded=0;orthogonalLoop=1;jettySize=auto;html=1;exitX=0.5;exitY=0;exitDx=0;exitDy=0;entryX=0.5;entryY=0;entryDx=0;entryDy=0;strokeWidth=2;" parent="1" source="l_SEVt5sIYUPbIbYuYTj-2" edge="1">
          <mxGeometry relative="1" as="geometry">
            <Array as="points">
              <mxPoint x="20" y="240" />
              <mxPoint x="140" y="240" />
            </Array>
            <mxPoint x="140" y="279" as="targetPoint" />
          </mxGeometry>
        </mxCell>
        <mxCell id="zeR3zR6__oL3ypceSCZx-9" style="edgeStyle=orthogonalEdgeStyle;rounded=0;orthogonalLoop=1;jettySize=auto;html=1;entryX=0.443;entryY=0.024;entryDx=0;entryDy=0;entryPerimeter=0;strokeWidth=2;" edge="1" parent="1" source="l_SEVt5sIYUPbIbYuYTj-2" target="l_SEVt5sIYUPbIbYuYTj-8">
          <mxGeometry relative="1" as="geometry">
            <Array as="points">
              <mxPoint x="20" y="240" />
              <mxPoint x="253" y="240" />
            </Array>
          </mxGeometry>
        </mxCell>
        <mxCell id="l_SEVt5sIYUPbIbYuYTj-2" value="ID" style="shape=ext;double=0;rounded=0;whiteSpace=wrap;html=1;fillColor=#ffe6cc;strokeColor=#d79b00;perimeterSpacing=1;glass=0;shadow=0;strokeWidth=2;snapToPoint=1;fontStyle=1;fontSize=17;labelBorderColor=none;labelBackgroundColor=none;" parent="1" vertex="1">
          <mxGeometry x="-40" y="280" width="120" height="80" as="geometry" />
        </mxCell>
        <mxCell id="l_SEVt5sIYUPbIbYuYTj-8" value="TITLE" style="shape=ext;double=0;rounded=0;whiteSpace=wrap;html=1;fillColor=#dae8fc;strokeColor=#6c8ebf;perimeterSpacing=1;glass=0;shadow=0;strokeWidth=2;snapToPoint=1;fontStyle=1;fontSize=17;labelBorderColor=none;labelBackgroundColor=none;" parent="1" vertex="1">
          <mxGeometry x="200" y="280" width="120" height="80" as="geometry" />
        </mxCell>
        <mxCell id="l_SEVt5sIYUPbIbYuYTj-10" value="TABLE: books" style="text;strokeColor=none;fillColor=none;html=1;fontSize=24;fontStyle=1;verticalAlign=middle;align=center;fontFamily=Times New Roman;" parent="1" vertex="1">
          <mxGeometry x="-40" y="200" width="360" height="40" as="geometry" />
        </mxCell>
        <mxCell id="zeR3zR6__oL3ypceSCZx-10" style="edgeStyle=orthogonalEdgeStyle;rounded=0;orthogonalLoop=1;jettySize=auto;html=1;entryX=0;entryY=0.5;entryDx=0;entryDy=0;strokeWidth=2;endArrow=none;endFill=0;startArrow=classic;startFill=1;dashed=1;" edge="1" parent="1" source="zeR3zR6__oL3ypceSCZx-3" target="l_SEVt5sIYUPbIbYuYTj-2">
          <mxGeometry relative="1" as="geometry">
            <mxPoint x="-80" y="320" as="targetPoint" />
            <Array as="points">
              <mxPoint x="-80" y="80" />
              <mxPoint x="-80" y="320" />
            </Array>
          </mxGeometry>
        </mxCell>
        <mxCell id="zeR3zR6__oL3ypceSCZx-3" value="ID" style="shape=ext;double=0;rounded=0;whiteSpace=wrap;html=1;fillColor=#ffe6cc;strokeColor=#d79b00;perimeterSpacing=1;glass=0;shadow=0;strokeWidth=2;snapToPoint=1;fontStyle=1;fontSize=17;labelBorderColor=none;labelBackgroundColor=none;" vertex="1" parent="1">
          <mxGeometry x="-40" y="40" width="120" height="80" as="geometry" />
        </mxCell>
        <mxCell id="zeR3zR6__oL3ypceSCZx-4" value="QTY" style="shape=ext;double=0;rounded=0;whiteSpace=wrap;html=1;fillColor=#dae8fc;strokeColor=#6c8ebf;perimeterSpacing=1;glass=0;shadow=0;strokeWidth=2;snapToPoint=1;fontStyle=1;fontSize=17;labelBorderColor=none;labelBackgroundColor=none;" vertex="1" parent="1">
          <mxGeometry x="80" y="40" width="120" height="80" as="geometry" />
        </mxCell>
        <mxCell id="zeR3zR6__oL3ypceSCZx-5" style="edgeStyle=orthogonalEdgeStyle;rounded=0;orthogonalLoop=1;jettySize=auto;html=1;exitX=0.5;exitY=0;exitDx=0;exitDy=0;entryX=0.5;entryY=0;entryDx=0;entryDy=0;strokeWidth=2;" edge="1" parent="1">
          <mxGeometry relative="1" as="geometry">
            <Array as="points">
              <mxPoint x="20" y="1" />
              <mxPoint x="140" y="1" />
            </Array>
            <mxPoint x="20" y="40" as="sourcePoint" />
            <mxPoint x="140" y="40" as="targetPoint" />
          </mxGeometry>
        </mxCell>
        <mxCell id="zeR3zR6__oL3ypceSCZx-6" value="TABLE: inventory" style="text;strokeColor=none;fillColor=none;html=1;fontSize=24;fontStyle=1;verticalAlign=middle;align=center;fontFamily=Times New Roman;" vertex="1" parent="1">
          <mxGeometry x="-40" y="-40" width="240" height="40" as="geometry" />
        </mxCell>
        <mxCell id="zeR3zR6__oL3ypceSCZx-7" value="AUTHOR" style="shape=ext;double=0;rounded=0;whiteSpace=wrap;html=1;fillColor=#dae8fc;strokeColor=#6c8ebf;perimeterSpacing=1;glass=0;shadow=0;strokeWidth=2;snapToPoint=1;fontStyle=1;fontSize=17;labelBorderColor=none;labelBackgroundColor=none;" vertex="1" parent="1">
          <mxGeometry x="80" y="280" width="120" height="80" as="geometry" />
        </mxCell>
      </root>
    </mxGraphModel>
  </diagram>
</mxfile>
